<?xml version="1.0" encoding="UTF-8" standalone="no"?>
<!-- Created with Inkscape (http://www.inkscape.org/) -->

<svg
   xmlns:dc="http://purl.org/dc/elements/1.1/"
   xmlns:cc="http://creativecommons.org/ns#"
   xmlns:rdf="http://www.w3.org/1999/02/22-rdf-syntax-ns#"
   xmlns:svg="http://www.w3.org/2000/svg"
   xmlns="http://www.w3.org/2000/svg"
   xmlns:xlink="http://www.w3.org/1999/xlink"
   xmlns:sodipodi="http://sodipodi.sourceforge.net/DTD/sodipodi-0.dtd"
   xmlns:inkscape="http://www.inkscape.org/namespaces/inkscape"
   width="612"
   height="84.002434"
   id="svg2"
   version="1.1"
   inkscape:version="0.47 r22583"
   sodipodi:docname="fresco.svg"
   inkscape:export-filename="/home/brice/Projets/sekyl/app/assets/images/fresco.png"
   inkscape:export-xdpi="179.99478"
   inkscape:export-ydpi="179.99478">
  <defs
     id="defs4">
    <linearGradient
       id="linearGradient3976">
      <stop
         style="stop-color:#9dd8a4;stop-opacity:1;"
         offset="0"
         id="stop3978" />
      <stop
         style="stop-color:#ccecd0;stop-opacity:1;"
         offset="1"
         id="stop3980" />
    </linearGradient>
    <inkscape:perspective
       sodipodi:type="inkscape:persp3d"
       inkscape:vp_x="0 : 526.18109 : 1"
       inkscape:vp_y="0 : 1000 : 0"
       inkscape:vp_z="744.09448 : 526.18109 : 1"
       inkscape:persp3d-origin="372.04724 : 350.78739 : 1"
       id="perspective10" />
    <inkscape:perspective
       id="perspective3824"
       inkscape:persp3d-origin="0.5 : 0.33333333 : 1"
       inkscape:vp_z="1 : 0.5 : 1"
       inkscape:vp_y="0 : 1000 : 0"
       inkscape:vp_x="0 : 0.5 : 1"
       sodipodi:type="inkscape:persp3d" />
    <inkscape:perspective
       id="perspective3860"
       inkscape:persp3d-origin="0.5 : 0.33333333 : 1"
       inkscape:vp_z="1 : 0.5 : 1"
       inkscape:vp_y="0 : 1000 : 0"
       inkscape:vp_x="0 : 0.5 : 1"
       sodipodi:type="inkscape:persp3d" />
    <inkscape:perspective
       id="perspective3895"
       inkscape:persp3d-origin="0.5 : 0.33333333 : 1"
       inkscape:vp_z="1 : 0.5 : 1"
       inkscape:vp_y="0 : 1000 : 0"
       inkscape:vp_x="0 : 0.5 : 1"
       sodipodi:type="inkscape:persp3d" />
    <inkscape:perspective
       id="perspective3917"
       inkscape:persp3d-origin="0.5 : 0.33333333 : 1"
       inkscape:vp_z="1 : 0.5 : 1"
       inkscape:vp_y="0 : 1000 : 0"
       inkscape:vp_x="0 : 0.5 : 1"
       sodipodi:type="inkscape:persp3d" />
    <inkscape:perspective
       id="perspective3939"
       inkscape:persp3d-origin="0.5 : 0.33333333 : 1"
       inkscape:vp_z="1 : 0.5 : 1"
       inkscape:vp_y="0 : 1000 : 0"
       inkscape:vp_x="0 : 0.5 : 1"
       sodipodi:type="inkscape:persp3d" />
    <inkscape:perspective
       id="perspective3961"
       inkscape:persp3d-origin="0.5 : 0.33333333 : 1"
       inkscape:vp_z="1 : 0.5 : 1"
       inkscape:vp_y="0 : 1000 : 0"
       inkscape:vp_x="0 : 0.5 : 1"
       sodipodi:type="inkscape:persp3d" />
    <linearGradient
       inkscape:collect="always"
       xlink:href="#linearGradient3976"
       id="linearGradient3982"
       x1="-1.5900661e-31"
       y1="84.002434"
       x2="-1.5900661e-31"
       y2="0"
       gradientUnits="userSpaceOnUse"
       gradientTransform="matrix(1,0,0,0.99997103,0,968.36461)" />
    <inkscape:perspective
       id="perspective3992"
       inkscape:persp3d-origin="0.5 : 0.33333333 : 1"
       inkscape:vp_z="1 : 0.5 : 1"
       inkscape:vp_y="0 : 1000 : 0"
       inkscape:vp_x="0 : 0.5 : 1"
       sodipodi:type="inkscape:persp3d" />
    <linearGradient
       inkscape:collect="always"
       xlink:href="#linearGradient3976-2"
       id="linearGradient3982-1"
       x1="-1.5900661e-31"
       y1="84.002434"
       x2="-1.5900661e-31"
       y2="0"
       gradientUnits="userSpaceOnUse" />
    <linearGradient
       id="linearGradient3976-2">
      <stop
         style="stop-color:#9dd8a4;stop-opacity:1;"
         offset="0"
         id="stop3978-3" />
      <stop
         style="stop-color:#ccecd0;stop-opacity:1;"
         offset="1"
         id="stop3980-7" />
    </linearGradient>
  </defs>
  <sodipodi:namedview
     id="base"
     pagecolor="#ffffff"
     bordercolor="#666666"
     borderopacity="1.0"
     inkscape:pageopacity="0.0"
     inkscape:pageshadow="2"
     inkscape:zoom="2"
     inkscape:cx="415.69033"
     inkscape:cy="105.26412"
     inkscape:document-units="px"
     inkscape:current-layer="layer1"
     showgrid="false"
     borderlayer="true"
     inkscape:showpageshadow="false"
     showguides="true"
     inkscape:guide-bbox="true"
     inkscape:window-width="1680"
     inkscape:window-height="949"
     inkscape:window-x="0"
     inkscape:window-y="25"
     inkscape:window-maximized="1">
    <sodipodi:guide
       orientation="1,0"
       position="84,0.0024334487"
       id="guide3842" />
    <sodipodi:guide
       orientation="1,0"
       position="168,0.0024334487"
       id="guide3844" />
    <sodipodi:guide
       orientation="1,0"
       position="252,0.0024334487"
       id="guide3846" />
    <sodipodi:guide
       orientation="1,0"
       position="336,0.0024334487"
       id="guide3848" />
    <sodipodi:guide
       orientation="1,0"
       position="420,0.0024334487"
       id="guide3850" />
  </sodipodi:namedview>
  <metadata
     id="metadata7">
    <rdf:RDF>
      <cc:Work
         rdf:about="">
        <dc:format>image/svg+xml</dc:format>
        <dc:type
           rdf:resource="http://purl.org/dc/dcmitype/StillImage" />
        <dc:title></dc:title>
      </cc:Work>
    </rdf:RDF>
  </metadata>
  <g
     inkscape:label="Calque 1"
     inkscape:groupmode="layer"
     id="layer1"
     transform="translate(0,-968.36218)">
    <path
       style="fill:url(#linearGradient3982);fill-opacity:1;stroke:none;opacity:0.69767442"
       d="M 54.84375,968.36461 C 54.84375,968.36461 41.64463,974.90042 38.4375,980.36427 C 35.23038,985.82811 37.21875,1003.0511 37.21875,1003.0511 C 37.21875,1003.0511 51.26105,990.55337 53.875,985.11413 C 56.48894,979.67479 54.84375,968.36461 54.84375,968.36461 z M 388.4375,968.36461 C 388.4375,968.36461 391.78919,974.96617 390.125,977.20811 C 387.15872,981.20399 375.46875,981.20799 375.46875,981.20799 L 380.6875,988.89527 C 380.6875,988.89527 396.15871,986.15905 398.65625,980.958 C 400.93882,976.20464 388.4375,968.36461 388.4375,968.36461 z M 75.625,968.48961 C 71.09884,968.48281 65.89992,968.8843 63.1875,970.55205 C 57.76267,973.88755 56.3125,985.33287 56.3125,985.33287 C 56.3125,985.33287 68.22472,987.99804 73.21875,984.61414 C 78.2128,981.23024 84,968.9271 84,968.9271 C 84,968.9271 80.15118,968.49641 75.625,968.48961 z M 335.6875,968.83335 C 335.6875,968.83335 323.19823,970.4402 324.09375,979.77053 C 324.92009,988.37978 344.59375,989.58275 344.59375,989.58275 C 346.13851,986.82783 347.74435,983.36918 349.90625,980.61426 C 349.90625,980.61426 334.91294,982.17361 332.9375,976.86437 C 330.87435,971.31933 335.6875,968.83335 335.6875,968.83335 z M 145.6875,968.8646 C 136.41486,968.9178 127.58351,971.26458 118.9375,974.45819 C 115.83687,973.68581 112.73018,972.80703 109.84375,974.39569 C 109.64479,976.92992 110.63622,978.97466 111.5,981.083 C 106.39166,991.43929 104.54906,1002.8883 107.375,1015.8945 C 112.61331,1018.209 117.85544,1019.8744 123.09375,1020.8631 C 117.23765,1020.6769 112.2212,1018.6474 107.4375,1016.957 C 100.85738,1025.3208 100.8572,1035.2326 100.75,1044.8936 C 99.837821,1045.9801 98.4867,1046.7401 98.59375,1048.6435 C 100.64365,1049.8509 103.62956,1048.919 106.53125,1048.2061 C 130.89981,1056.2626 144.64671,1048.7812 161.96875,1046.5498 C 164.00152,1048.3996 166.30655,1049.5592 169.21875,1049.206 C 169.14009,1046.3529 167.93381,1043.2193 166.09375,1039.925 C 169.25269,1032.1093 170.89117,1023.8134 168.5625,1014.2383 C 162.05309,1017.8959 155.44869,1019.714 148.71875,1019.3944 C 157.60487,1018.3289 163.15439,1016.7163 168.65625,1013.0196 C 175.27794,1003.0624 173.72643,987.76905 171.375,975.36441 C 173.6568,973.53056 173.41578,971.48967 174.21875,969.02084 C 170.31828,969.20964 167.62289,970.27926 164.15625,971.98951 C 157.75937,969.75547 151.63151,968.8305 145.6875,968.8646 z M 460.34375,969.64583 L 431.65625,987.61406 L 417.90625,1021.7693 L 425.65625,1021.7693 L 425.65625,1051.081 L 494.71875,1051.081 L 494.71875,1021.7693 L 501.90625,1021.7693 L 488.65625,987.58281 L 460.34375,969.64583 z M 33.0625,973.14572 C 33.0625,973.14572 31.52582,983.35978 31.125,988.23904 C 31.125,988.23904 21.2953,994.29698 18.8125,1000.3324 C 16.3297,1006.3679 19.34375,1022.363 19.34375,1022.363 C 19.34375,1022.363 31.71978,1012.6194 34.03125,1006.2073 C 36.34271,999.79512 33.0625,986.36409 33.0625,986.36409 L 33.0625,973.14572 z M 242.34375,973.36447 L 188.8125,1009.8634 L 225.15625,1027.9566 L 270.71875,983.20793 L 242.34375,973.36447 z M 460.3125,976.20814 L 484.15625,991.30145 L 493.84375,1016.2382 L 489.1875,1016.2382 L 489.1875,1045.5499 L 472.1875,1045.5499 L 472.1875,1022.3006 L 448.8125,1022.3006 L 448.8125,1045.5499 L 431.1875,1045.5499 L 431.1875,1016.2382 L 426.78125,1016.2382 L 436.21875,991.2702 L 460.3125,976.20814 z M 558.5625,976.33313 L 551.09375,1002.5199 L 541.1875,1002.5199 L 541.1875,982.39546 L 536.9375,982.39546 L 536.9375,1002.3636 L 522.78125,1004.0823 L 523.90625,1017.1757 L 516,1017.1757 L 516,1030.9878 L 521.4375,1030.9878 C 521.41562,1031.2897 521.40625,1031.6172 521.40625,1031.9253 C 521.40625,1038.9256 527.17385,1044.3937 533.90625,1044.3937 C 540.63865,1044.3937 546.375,1038.9256 546.375,1031.9253 C 546.375,1029.4808 545.6681,1027.2058 544.46875,1025.3005 L 558.0625,1025.3005 C 559.04531,1036.1743 568.33392,1044.3937 579,1044.3937 C 590.28359,1044.3937 600,1035.2034 600,1023.3943 C 600,1013.9993 593.85403,1006.261 585.65625,1003.4886 L 585.65625,976.33313 L 558.5625,976.33313 z M 354.8125,978.17683 C 354.44968,978.20047 354.11153,978.26135 353.75,978.36432 C 346.87233,987.38486 342.3258,998.5216 337.90625,1008.7697 C 343.53154,1017.4817 347.41531,1023.45 347.46875,1030.9253 C 347.46875,1030.9253 340.49202,1038.4167 341.21875,1042.3 C 342.14851,1047.2681 350.25,1051.331 350.25,1051.331 C 357.8974,1052.1812 365.53656,1053.0787 374.40625,1051.4872 C 374.40625,1051.4872 382.34798,1045.7271 382.40625,1042.5187 C 382.48076,1038.4158 376.1875,1030.9253 376.1875,1030.9253 C 377.00985,1023.5763 383.03746,1016.9312 387.375,1009.5822 C 384.56783,999.65392 379.82331,988.52668 371.875,978.83306 C 368.67129,977.4792 365.57042,979.53669 362.5625,979.55179 C 359.93057,979.56491 357.35222,978.01137 354.8125,978.17683 z M 562.84375,981.48923 L 579.90625,981.48923 L 579.90625,1002.3949 C 579.60199,1002.3815 579.30674,1002.3949 579,1002.3949 C 576.47099,1002.3949 574.03028,1002.8575 571.75,1003.7073 L 557.125,1002.5199 L 562.84375,981.48923 z M 273.03125,983.89541 L 245.9375,1011.5509 L 274.53125,1034.6127 L 305.71875,995.36383 L 273.03125,983.89541 z M 152.8125,985.20788 C 153.25726,991.57059 152.70994,998.23079 151.0625,1003.8948 C 141.68521,1004.9402 132.96714,1006.9765 120.84375,1003.8948 C 120.41614,993.95931 122.71819,989.4947 125.125,985.23912 C 133.8404,987.99364 142.69218,985.97235 152.8125,985.20788 z M 59.75,987.80155 C 58.38514,987.80215 57.04665,987.94785 55.84375,988.36403 C 49.42832,990.58397 39.1875,1005.0198 39.1875,1005.0198 C 39.1875,1005.0198 54.23444,1007.1498 60,1004.3636 C 65.76556,1001.5774 72.25,990.95771 72.25,990.95771 C 72.25,990.95771 65.6644,987.79875 59.75,987.80155 z M 392.46875,989.05151 C 387.70361,989.03481 381.84375,991.45769 381.84375,991.45769 C 386.30982,999.67551 385.83143,999.97471 391.25,1003.2699 C 396.66857,1006.5651 403.8125,1004.2073 403.8125,1004.2073 C 403.8125,1004.2073 401.35978,993.23679 396.625,990.05149 C 395.53384,989.31741 394.05714,989.05711 392.46875,989.05151 z M 331.8125,989.36401 C 330.4982,989.35861 329.2179,989.5536 328.03125,990.05149 C 323.18082,992.39112 319.8125,1006.0198 319.8125,1006.0198 C 319.8125,1006.0198 329.83771,1007.2492 333.90625,1004.8636 C 338.14151,1002.3801 343.3125,992.64516 343.3125,992.64516 C 340.04233,991.2681 335.75539,989.3803 331.8125,989.36401 z M 16.65625,989.5515 L 11.875,1010.1134 C 11.875,1010.1134 6.28367,1013.9023 2.21875,1020.7068 C -1.72314,1027.3054 4.15625,1041.5812 4.15625,1042.5187 C 4.15625,1042.5187 16.1323,1031.1598 16.65625,1024.9567 C 16.94588,1021.5278 15.06239,1015.9279 14.78125,1009.3322 C 14.50011,1002.7366 15.82133,995.13034 16.65625,989.5515 z M 136.59375,990.14523 C 133.08583,991.99198 134.25096,991.2065 132.3125,991.2077 C 131.57978,991.2099 130.82646,991.2146 130.09375,991.2077 C 129.5752,991.2005 129.07173,991.1935 128.5625,991.08271 C 128.21425,990.95811 128.04361,990.61107 127.6875,990.48897 L 124.34375,992.73891 C 124.68585,992.8405 124.89041,993.1226 125.1875,993.30139 C 125.71568,993.54178 126.30743,993.53768 126.875,993.55138 C 127.60986,993.56018 128.32762,993.55248 129.0625,993.55138 C 129.76511,993.54808 130.48488,993.55408 131.1875,993.55138 C 133.96641,993.59838 132.73331,990.93791 135.375,993.52013 C 135.6239,993.92192 135.90535,994.29471 136.28125,994.5826 C 136.66779,994.7748 136.96624,995.04639 137.40625,995.08259 C 138.06572,995.03639 138.64504,994.6289 139.25,994.39511 C 139.81415,994.18912 140.40499,994.14557 141,994.11387 C 141.57044,994.11287 142.10625,994.09077 142.65625,993.92637 C 143.32897,993.73808 143.95268,993.41474 144.59375,993.14515 C 145.0533,993.01375 145.64227,992.69966 146.125,992.89515 L 146.1875,992.9889 L 149.65625,990.92646 L 149.5,990.70772 C 148.93489,990.25583 148.35253,990.48887 147.71875,990.67647 C 147.07273,990.91506 146.4969,991.27425 145.84375,991.48894 C 145.67037,991.55184 145.48931,991.62394 145.3125,991.67644 C 144.95888,991.78154 144.58043,991.71014 144.21875,991.73894 C 143.60106,991.75414 143.00491,991.78968 142.40625,991.95768 C 141.79414,992.14697 141.2304,992.43807 140.65625,992.70766 C 140.54907,992.72676 140.45217,992.77996 140.34375,992.77016 C 140.09398,992.74756 139.96664,992.37547 139.6875,992.39517 C 139.29967,992.17537 139.02405,991.79023 138.78125,991.42645 C 138.3436,990.94706 137.78979,990.57372 137.21875,990.27023 C 137.00555,990.19723 136.81492,990.14723 136.59375,990.14523 z M 454.5,993.39514 L 454.5,1005.2385 L 466.03125,1005.2385 L 466.03125,993.39514 L 454.5,993.39514 z M 141.0625,997.58252 C 140.39277,997.63577 140.47523,999.54418 139.28125,1001.0199 C 139.66566,1001.5099 140.13071,1001.8663 140.71875,1002.0824 C 141.36582,1002.2485 142.05577,1002.2649 142.71875,1002.2699 C 143.41064,1002.306 144.06081,1002.1549 144.71875,1001.9574 C 146.24119,1001.3545 147.86076,1000.6774 148.9375,999.42621 C 147.61381,999.87141 146.3748,1000.4866 145.875,1000.7387 C 146.18842,1000.5478 146.81736,1000.1483 147.875,999.48871 C 147.25921,999.736 146.60422,999.89935 145.9375,999.89495 C 145.30328,999.89725 144.66124,999.91675 144.03125,999.83245 C 143.43639,999.69466 142.98697,999.36152 142.625,998.86373 C 141.80709,997.89666 141.36692,997.55831 141.0625,997.58252 z M 127.6875,998.05125 L 124.40625,1000.3637 C 125.05302,1000.4838 125.61855,1000.7755 126.25,1000.9574 C 126.81524,1001.0661 127.40274,1001.1954 127.96875,1001.3012 C 128.59068,1001.42 129.17845,1001.3977 129.78125,1001.2074 C 130.38893,1000.9271 131.02829,1000.7692 131.6875,1000.6762 C 132.13239,1000.637 132.65502,1000.5361 133.0625,1000.7699 C 133.43437,1001.163 133.78625,1001.5928 134.15625,1001.9886 C 134.53406,1002.4128 135.01287,1002.6123 135.5625,1002.7074 C 140.59285,1001.9948 137.52518,1001.1559 137.46875,1000.0512 C 138.15639,998.41453 137.48601,999.87412 136.46875,998.61374 C 136.02687,998.23245 135.4682,998.23705 134.90625,998.30125 C 134.23474,998.36694 133.55722,998.45742 132.9375,998.73873 C 132.39159,999.00033 131.85459,999.09962 131.25,998.98873 C 130.68511,998.90433 130.13071,998.73773 129.5625,998.67624 C 128.91286,998.52922 128.30788,998.28505 127.6875,998.05125 z M 348.90625,1005.6135 C 350.28782,1005.5261 352.50291,1005.633 354.375,1006.7385 C 356.20965,1007.822 355.4375,1012.3633 355.4375,1012.3633 C 355.4375,1012.3633 349.66986,1012.8708 348.03125,1010.9571 C 346.45179,1009.1127 347.5625,1005.801 347.5625,1005.801 C 347.5625,1005.801 348.07731,1005.666 348.90625,1005.6135 z M 373.21875,1005.7698 C 374.82478,1005.7212 376.21875,1006.2698 376.21875,1006.2698 C 376.21875,1006.2698 377.04368,1009.6348 374.5625,1011.6759 C 372.78101,1013.1412 368.46875,1012.3633 368.46875,1012.3633 C 368.46875,1012.3633 367.87487,1008.6613 370.34375,1006.7385 C 371.22521,1006.052 372.25513,1005.7989 373.21875,1005.7698 z M 44.15625,1008.8947 C 41.06228,1008.9167 38.2751,1009.3048 36.5,1009.7072 C 30.44182,1012.4012 21.3125,1025.4255 21.3125,1025.4255 C 21.3125,1025.4255 36.79042,1028.3472 42.125,1025.8942 C 47.45959,1023.4412 52.53125,1013.4258 52.53125,1013.4258 L 70.78125,1010.3634 C 70.78125,1010.3634 59.47643,1010.3519 54.84375,1010.6759 C 51.56731,1009.299 47.66275,1008.8697 44.15625,1008.8947 z M 244.28125,1013.3321 L 228,1029.2691 L 264.28125,1047.3623 L 273.03125,1037.0501 L 244.28125,1013.3321 z M 579,1014.9883 C 584.34564,1014.9883 587.53125,1018.9579 587.53125,1023.3943 C 587.53125,1027.8307 584.34564,1031.8003 579,1031.8003 C 573.65436,1031.8003 570.46875,1027.8307 570.46875,1023.3943 C 570.46875,1018.9579 573.65436,1014.9883 579,1014.9883 z M 23.75,1020.1131 C 23.75,1020.1131 11.70713,1035.1217 8.40625,1039.7688 C 5.10537,1044.416 0,1052.3622 0,1052.3622 L 3.03125,1052.3622 C 3.03125,1052.3622 6.27161,1045.0937 9.0625,1040.4563 C 11.85339,1035.8187 23.75,1020.1131 23.75,1020.1131 z M 533.90625,1025.8629 C 537.61991,1025.8629 540.3125,1028.6859 540.3125,1031.9253 C 540.3125,1035.1647 537.61991,1037.9876 533.90625,1037.9876 C 530.19259,1037.9876 527.46875,1035.1647 527.46875,1031.9253 C 527.46875,1028.6859 530.19259,1025.8629 533.90625,1025.8629 z M 24.96875,1028.2379 C 23.3146,1028.2468 21.78955,1028.451 20.5625,1028.9254 C 14.52159,1031.2608 7.59375,1045.1124 7.59375,1045.1124 C 7.59375,1045.1124 21.35623,1046.6926 27.1875,1044.3937 C 33.01877,1042.0947 39.125,1032.8002 39.125,1032.8002 C 43.3581,1032.5054 51.10429,1031.0559 53.3125,1031.0503 L 52.90625,1031.0503 L 39.90625,1031.0503 C 39.90625,1031.0503 31.45808,1028.2027 24.96875,1028.2379 z M 350.59375,1035.4877 C 350.59375,1035.4877 350.59973,1038.1953 351.53125,1039.5501 C 352.39622,1040.8081 354.10377,1039.5334 354.65625,1040.9563 C 355.22643,1042.4247 355.45967,1043.8264 353.9375,1044.2374 C 351.58789,1044.872 348.37527,1042.6341 347.8125,1040.2688 C 347.20533,1037.7168 350.59375,1035.4877 350.59375,1035.4877 z M 372.3125,1036.2689 C 372.3125,1036.2689 376.24183,1037.4669 375.625,1040.0188 C 375.05326,1042.3841 371.7933,1044.6533 369.40625,1044.0187 C 367.85984,1043.6077 368.32699,1042.1747 368.90625,1040.7063 C 369.46753,1039.2834 370.96499,1040.8081 371.84375,1039.5501 C 372.79011,1038.1953 372.3125,1036.2689 372.3125,1036.2689 z"
       id="path3676" />
  </g>
</svg>
